# xmcd
#
# Track frame offsets: 
#        150
#        16281
#        34658
#        51224
#        68684
#        88083
#        104142
#        119509
#        137086
#        153545
#        170088
#        185852
#        198232
#        214442
#        235345
#        251060
#        267157
#        285492
#        296151
#        315292
#        336583
#
# Disc length: 4726 seconds
#
# Revision: 2
# Processed by: cddbd v1.5.2PL0 Copyright (c) Steve Scherf et al.
# Submitted via: ExactAudioCopy v1.1
#
DISCID=4f127415
DTITLE=Seasick Steve - Walkin' Man - The Best Of
DYEAR=2011
DGENRE=Blues
TTITLE0=Dog House Boogie
TTITLE1=Cheap
TTITLE2=Started Out With Nothin'
TTITLE3=Diddley Bo
TTITLE4=Thunderbird
TTITLE5=Happy Man
TTITLE6=Cut My Wings
TTITLE7=Treasure
TTITLE8=St Louis Slim
TTITLE9=8-Ball
TTITLE10=Don't Know Why She Love Me But She Do
TTITLE11=Walkin' Man
TTITLE12=You Can't Teach An Old Dog New Tricks
TTITLE13=Fallen Off A Rock
TTITLE14=The Banjo Song
TTITLE15=Never Go West
TTITLE16=My Donny
TTITLE17=Prospect Lane
TTITLE18=Xmas Prison Blues
TTITLE19=That's All
TTITLE20=Dark
EXTD=YEAR: 2011
EXTT0=
EXTT1=
EXTT2=
EXTT3=
EXTT4=
EXTT5=
EXTT6=
EXTT7=
EXTT8=
EXTT9=
EXTT10=
EXTT11=
EXTT12=
EXTT13=
EXTT14=
EXTT15=
EXTT16=
EXTT17=
EXTT18=
EXTT19=
EXTT20=
PLAYORDER=
